<?xml version="1.0" encoding="UTF-8"?><svg xmlns="http://www.w3.org/2000/svg" xmlns:xlink="http://www.w3.org/1999/xlink" contentScriptType="text/ecmascript" width="375" zoomAndPan="magnify" contentStyleType="text/css" viewBox="0 0 375 374.999991" height="374.999991" preserveAspectRatio="xMidYMid meet" version="1.0"><defs><clipPath id="clip-0"><path d="M 34 111 L 341.769531 111 L 341.769531 263 L 34 263 Z M 34 111 " clip-rule="nonzero"/></clipPath></defs><g clip-path="url(#clip-0)"><path fill="rgb(0%, 0%, 0%)" d="M 324.265625 199.578125 C 322.441406 205.660156 321.15625 211.390625 319.003906 216.773438 C 316.488281 223.066406 312.273438 228.003906 305.273438 229.894531 C 304.410156 230.128906 303.742188 231.367188 303.144531 232.246094 C 300.621094 235.953125 298.4375 239.941406 295.5625 243.351562 C 293.855469 245.378906 291.289062 247.261719 288.773438 247.894531 C 284.835938 248.886719 282.6875 251.359375 280.300781 254.269531 C 270.367188 266.386719 255.269531 265.679688 245.886719 252.832031 C 240.125 244.9375 237.21875 235.832031 235.515625 226.386719 C 234.101562 218.523438 233.261719 210.546875 232.394531 202.59375 C 232.164062 200.46875 231.769531 199.527344 229.390625 199.535156 C 201.582031 199.609375 173.773438 199.601562 145.960938 199.550781 C 143.847656 199.546875 143.207031 200.242188 143.0625 202.359375 C 142.167969 215.292969 140.832031 228.214844 135.949219 240.34375 C 133.90625 245.414062 131.277344 250.503906 127.847656 254.71875 C 118.800781 265.832031 104.621094 265.683594 95.496094 254.667969 C 92.910156 251.546875 90.386719 249.15625 86.316406 247.730469 C 79.453125 245.328125 75.609375 239.367188 72.683594 232.976562 C 71.808594 231.058594 70.738281 229.925781 68.625 229.292969 C 63.867188 227.867188 60.15625 224.621094 58.273438 220.203125 C 55.765625 214.316406 54.003906 208.089844 52.246094 201.914062 C 51.746094 200.15625 51.207031 199.53125 49.46875 199.570312 C 46.394531 199.640625 43.308594 199.4375 40.238281 199.582031 C 37.898438 199.691406 36.515625 198.699219 35.828125 196.597656 C 33.726562 190.152344 33.703125 183.699219 35.925781 177.277344 C 36.605469 175.324219 37.945312 174.324219 40.121094 174.382812 C 43.300781 174.46875 46.484375 174.347656 49.664062 174.429688 C 51.304688 174.472656 51.792969 173.828125 52.234375 172.21875 C 53.800781 166.511719 55.277344 160.71875 57.574219 155.289062 C 59.832031 149.9375 63.960938 146.078125 69.796875 144.34375 C 70.722656 144.066406 71.617188 143.121094 72.175781 142.253906 C 74.222656 139.078125 75.90625 135.640625 78.140625 132.601562 C 80.949219 128.777344 84.902344 126.449219 89.480469 125.066406 C 90.8125 124.664062 92.046875 123.601562 93.074219 122.589844 C 95.539062 120.148438 97.566406 117.179688 100.289062 115.105469 C 107.476562 109.625 116.535156 109.910156 123.660156 115.453125 C 129.1875 119.753906 132.558594 125.582031 135.132812 131.9375 C 140.207031 144.46875 142.035156 157.671875 142.976562 171.023438 C 143.160156 173.628906 143.855469 174.484375 146.566406 174.476562 C 174.070312 174.375 201.574219 174.394531 229.078125 174.453125 C 231.351562 174.457031 232.242188 173.921875 232.414062 171.433594 C 233.351562 157.871094 234.972656 144.355469 240.511719 131.804688 C 242.789062 126.644531 245.90625 121.550781 249.726562 117.433594 C 257.667969 108.867188 269.777344 108.941406 277.863281 117.414062 C 281.746094 121.484375 285.390625 125.140625 290.878906 127.332031 C 297.019531 129.78125 300.082031 135.800781 302.925781 141.589844 C 303.457031 142.664062 304.457031 143.945312 305.5 144.257812 C 311.8125 146.144531 315.988281 150.472656 318.386719 156.222656 C 320.503906 161.289062 321.777344 166.722656 323.15625 172.066406 C 323.59375 173.765625 324.0625 174.511719 325.902344 174.429688 C 328.871094 174.292969 331.859375 174.507812 334.828125 174.378906 C 337.363281 174.265625 338.964844 175.28125 339.699219 177.671875 C 341.621094 183.925781 341.621094 190.191406 339.6875 196.441406 C 338.996094 198.667969 337.539062 199.714844 335.082031 199.617188 C 331.3125 199.46875 327.535156 199.578125 324.265625 199.578125 Z M 188.046875 197.578125 C 208.140625 197.578125 228.238281 197.5625 248.335938 197.601562 C 250.226562 197.605469 251.699219 197.484375 252.28125 195.230469 C 253.695312 189.742188 253.765625 184.308594 252.253906 178.835938 C 251.757812 177.03125 250.722656 176.5 248.902344 176.5 C 208.402344 176.542969 167.898438 176.550781 127.394531 176.480469 C 125.171875 176.476562 123.941406 177.394531 123.855469 179.328125 C 123.632812 184.296875 123.546875 189.277344 123.695312 194.246094 C 123.769531 196.773438 125.351562 197.664062 128.0625 197.648438 C 148.054688 197.519531 168.050781 197.578125 188.046875 197.578125 Z M 94.421875 237.644531 C 94.894531 237.476562 95.367188 237.308594 95.84375 237.140625 C 95.742188 235.367188 95.808594 233.566406 95.515625 231.824219 C 92.566406 214.382812 90.519531 196.871094 91.242188 179.132812 C 91.519531 172.261719 91.828125 165.390625 92.039062 158.515625 C 92.085938 156.984375 91.789062 155.441406 91.648438 153.902344 C 91.292969 153.867188 90.933594 153.832031 90.578125 153.792969 C 86.90625 158.914062 86.550781 165.25 84.890625 171.105469 C 84.617188 171.058594 84.34375 171.011719 84.070312 170.964844 C 85.390625 162.171875 86.710938 153.375 88.035156 144.570312 C 89.78125 145.914062 91.480469 147.839844 92.0625 147.546875 C 93.410156 146.871094 94.589844 145.257812 95.167969 143.769531 C 96.839844 139.476562 98.253906 135.074219 99.613281 130.671875 C 100.007812 129.390625 99.882812 127.949219 100 126.582031 C 98.675781 126.777344 97.351562 126.976562 96.023438 127.152344 C 95.871094 127.171875 95.699219 127.019531 95.210938 126.808594 C 96.699219 124.898438 97.984375 122.90625 99.59375 121.226562 C 107.285156 113.1875 117.226562 113.035156 124.558594 121.410156 C 127.859375 125.1875 130.460938 129.832031 132.417969 134.488281 C 137.234375 145.960938 138.796875 158.210938 139.808594 170.523438 C 139.902344 171.664062 140.074219 172.800781 140.210938 173.9375 C 140.964844 173.269531 141.136719 172.636719 141.097656 172.015625 C 140.414062 160.292969 138.785156 148.730469 135.09375 137.535156 C 132.792969 130.5625 129.785156 123.941406 124.402344 118.722656 C 116.851562 111.394531 106.660156 111.351562 99.039062 118.589844 C 93.515625 123.84375 90.507812 130.574219 88.222656 137.660156 C 83.546875 152.152344 82.128906 167.136719 81.902344 182.261719 C 81.640625 199.753906 82.480469 217.152344 87.425781 234.09375 C 89.390625 240.832031 91.949219 247.304688 96.367188 252.875 C 104.796875 263.507812 118.664062 263.710938 126.867188 252.910156 C 129.980469 248.808594 132.429688 244.015625 134.292969 239.195312 C 138.917969 227.210938 140.390625 214.546875 141.152344 201.800781 C 141.183594 201.277344 140.996094 200.746094 140.910156 200.21875 C 140.109375 201.214844 139.976562 202.25 139.847656 203.285156 C 139.027344 209.800781 138.464844 216.359375 137.332031 222.816406 C 135.625 232.566406 133.078125 242.121094 127.066406 250.242188 C 118.5 261.820312 105.425781 261.738281 97.070312 250.066406 C 91.488281 242.269531 88.992188 233.246094 87.359375 223.945312 C 88.480469 226.253906 89.335938 228.683594 90.484375 230.960938 C 91.640625 233.265625 93.097656 235.421875 94.421875 237.644531 Z M 288.167969 223.972656 C 286.140625 233.980469 283.613281 243.808594 276.921875 251.898438 C 269.3125 261.105469 257.21875 261.335938 249.910156 251.933594 C 246.457031 247.488281 243.847656 242.175781 241.808594 236.890625 C 237.683594 226.171875 236.527344 214.785156 235.625 203.402344 C 235.535156 202.3125 235.285156 201.230469 235.109375 200.148438 C 234.378906 200.941406 234.226562 201.636719 234.316406 202.300781 C 235.53125 211.242188 236.375 220.257812 238.128906 229.09375 C 239.933594 238.191406 243.105469 246.910156 249.445312 254.042969 C 257.417969 263.019531 269.5 263.425781 277.464844 254.460938 C 280.792969 250.710938 283.394531 246.0625 285.382812 241.414062 C 290.523438 229.390625 292.226562 216.539062 293.046875 203.601562 C 294.394531 182.316406 293.863281 161.128906 288.066406 140.410156 C 285.753906 132.152344 282.507812 124.28125 276.027344 118.246094 C 268.957031 111.660156 258.871094 111.460938 251.828125 118.070312 C 249.25 120.488281 246.941406 123.410156 245.238281 126.5 C 237.253906 140.996094 235.355469 156.992188 234.308594 173.148438 C 234.292969 173.417969 234.601562 173.707031 235.203125 174.78125 C 235.425781 172.820312 235.515625 171.734375 235.671875 170.664062 C 236.871094 162.445312 237.703125 154.148438 239.394531 146.035156 C 241.269531 137.058594 244.378906 128.4375 250.683594 121.40625 C 260 111.015625 274.019531 114.59375 279.707031 126.867188 C 278.386719 126.75 276.953125 126.621094 275.519531 126.492188 C 275.664062 128.050781 275.5625 129.679688 275.996094 131.152344 C 277.097656 134.890625 278.402344 138.566406 279.695312 142.242188 C 280.203125 143.683594 280.742188 145.167969 281.558594 146.441406 C 282.710938 148.226562 284.148438 148.328125 285.453125 146.472656 C 285.835938 145.925781 286.148438 145.324219 286.492188 144.746094 C 286.832031 144.753906 287.171875 144.761719 287.511719 144.765625 C 288.789062 153.664062 290.066406 162.5625 291.34375 171.460938 C 291.066406 171.5 290.789062 171.539062 290.511719 171.578125 C 288.53125 160.242188 286.839844 155.546875 283.675781 153.714844 C 283.558594 155.644531 283.320312 157.324219 283.378906 158.996094 C 283.578125 164.742188 283.894531 170.480469 284.140625 176.222656 C 284.941406 194.878906 283.144531 213.339844 279.964844 231.699219 C 279.652344 233.503906 279.753906 235.382812 279.660156 237.226562 C 280.007812 237.308594 280.355469 237.390625 280.703125 237.472656 C 284.613281 233.820312 285.742188 228.523438 288.167969 223.972656 Z M 284.921875 246.535156 C 289.027344 246.328125 292.40625 244.34375 295.515625 240.769531 C 300 235.621094 302.496094 229.472656 304.367188 223.015625 C 307.394531 212.582031 308.425781 201.867188 308.597656 191.070312 C 308.859375 174.984375 307.855469 159.039062 301.78125 143.871094 C 299.214844 137.464844 295.5 131.875 289.21875 128.476562 C 288.167969 127.90625 286.929688 127.691406 285.777344 127.3125 C 285.675781 127.53125 285.570312 127.75 285.46875 127.972656 C 288.699219 130.410156 291.933594 132.851562 295.167969 135.289062 C 295.257812 135.609375 295.347656 135.925781 295.441406 136.246094 C 291.238281 136.058594 291.953125 138.164062 292.691406 140.246094 C 294.125 144.300781 295.480469 148.390625 297.09375 152.375 C 297.585938 153.589844 298.648438 154.886719 299.785156 155.390625 C 300.300781 155.621094 301.632812 154.007812 303.136719 152.796875 C 304.265625 159.710938 305.367188 166.488281 306.472656 173.269531 C 304.078125 168.957031 304.019531 163.808594 300.027344 160.167969 C 299.371094 162.179688 299.035156 164.152344 299.015625 166.125 C 298.957031 172.484375 299.320312 178.863281 298.964844 185.203125 C 298.226562 198.402344 297.117188 211.578125 296.207031 224.765625 C 296.113281 226.09375 296.308594 227.441406 296.371094 228.78125 C 296.699219 228.878906 297.027344 228.980469 297.355469 229.078125 C 299.011719 226.589844 300.671875 224.097656 302.328125 221.609375 C 301.652344 225.027344 300.714844 228.375 299.167969 231.410156 C 297.601562 234.484375 295.757812 237.558594 293.425781 240.0625 C 291.203125 242.449219 288.195312 244.105469 284.921875 246.535156 Z M 89.960938 127.953125 C 89.757812 127.625 89.554688 127.296875 89.347656 126.972656 C 87.351562 128.058594 85.175781 128.914062 83.394531 130.28125 C 79.171875 133.527344 76.175781 137.746094 74.105469 142.691406 C 68.871094 155.21875 67.238281 168.414062 66.875 181.8125 C 66.464844 196.960938 67.347656 212 72.1875 226.523438 C 74.316406 232.90625 77.199219 238.957031 82.609375 243.28125 C 84.582031 244.859375 87 245.882812 89.214844 247.15625 C 89.589844 246.765625 89.964844 246.375 90.335938 245.988281 C 79.339844 240.90625 75.253906 231.304688 72.359375 220.183594 C 74.488281 223.488281 76.285156 226.277344 78.082031 229.066406 C 78.390625 228.910156 78.699219 228.75 79.007812 228.589844 C 79.007812 226.082031 79.167969 223.558594 78.980469 221.066406 C 78.230469 211.152344 77.113281 201.261719 76.632812 191.335938 C 76.199219 182.425781 76.441406 173.484375 76.320312 164.558594 C 76.300781 163.105469 75.929688 161.65625 75.675781 159.871094 C 74.859375 160.351562 74.347656 160.472656 74.230469 160.753906 C 72.585938 164.789062 70.992188 168.851562 69.382812 172.90625 C 69.253906 172.894531 69.121094 172.878906 68.992188 172.867188 C 70.09375 166.207031 71.195312 159.542969 72.308594 152.828125 C 73.84375 154.023438 75.210938 155.609375 75.707031 155.371094 C 76.839844 154.828125 77.875 153.527344 78.371094 152.300781 C 79.976562 148.3125 81.320312 144.21875 82.773438 140.167969 C 83.558594 137.96875 83.984375 135.980469 79.980469 136.398438 C 80.011719 136.09375 80.046875 135.789062 80.078125 135.484375 C 83.375 132.976562 86.667969 130.464844 89.960938 127.953125 Z M 70.148438 226.984375 C 67.667969 224.652344 64.824219 222.59375 62.808594 219.910156 C 60.714844 217.121094 59.425781 213.730469 57.785156 210.605469 C 57.980469 210.503906 58.175781 210.402344 58.371094 210.300781 C 59.921875 211.96875 61.472656 213.636719 63.5 215.816406 C 62.496094 200.183594 61.558594 185.546875 60.625 170.914062 C 60.273438 170.804688 59.925781 170.695312 59.578125 170.585938 C 58.214844 173.433594 56.851562 176.277344 55.488281 179.125 C 55.371094 179.082031 55.257812 179.035156 55.144531 178.992188 C 55.867188 174.605469 56.59375 170.21875 57.375 165.484375 C 60.105469 168.109375 61.109375 167.976562 62.160156 165.167969 C 63.09375 162.675781 63.871094 160.121094 64.667969 157.574219 C 65.21875 155.808594 65.324219 154.246094 62.359375 154.015625 C 65.015625 151.734375 67.667969 149.453125 70.324219 147.167969 C 70.082031 146.835938 69.84375 146.507812 69.601562 146.175781 C 67.636719 147.457031 65.46875 148.511719 63.75 150.066406 C 59.828125 153.617188 57.726562 158.335938 56.300781 163.3125 C 52.351562 177.089844 52.175781 191.035156 54.816406 205.042969 C 56.003906 211.339844 57.957031 217.386719 62.148438 222.425781 C 64.167969 224.855469 66.496094 226.914062 70.148438 226.984375 Z M 320.304688 179.035156 C 320.175781 179.015625 320.046875 178.996094 319.921875 178.976562 C 318.53125 176.171875 317.140625 173.367188 315.75 170.5625 C 315.445312 170.699219 315.136719 170.832031 314.828125 170.964844 C 313.886719 185.601562 312.949219 200.238281 312.007812 214.875 C 312.191406 215.019531 312.378906 215.160156 312.5625 215.300781 C 314.085938 213.554688 315.605469 211.808594 317.128906 210.0625 C 316.089844 213.492188 314.886719 216.929688 312.8125 219.722656 C 310.757812 222.492188 307.828125 224.609375 305.285156 227.015625 C 305.511719 227.316406 305.738281 227.617188 305.964844 227.921875 C 307.925781 226.617188 310.085938 225.53125 311.804688 223.964844 C 315.714844 220.402344 317.796875 215.667969 319.21875 210.703125 C 323.132812 197.03125 323.167969 183.1875 320.648438 169.28125 C 319.542969 163.167969 317.550781 157.367188 313.773438 152.339844 C 311.671875 149.539062 309.113281 147.335938 305.671875 146.519531 C 305.480469 146.734375 305.292969 146.949219 305.105469 147.164062 C 307.769531 149.4375 310.4375 151.714844 313.101562 153.992188 C 313.207031 154.257812 313.316406 154.527344 313.421875 154.792969 C 309.582031 154.171875 310.34375 156.171875 310.847656 157.867188 C 311.519531 160.125 312.257812 162.371094 313.117188 164.5625 C 313.511719 165.5625 314.101562 166.898438 314.921875 167.199219 C 315.6875 167.476562 316.882812 166.585938 318.210938 166.089844 C 318.90625 170.390625 319.605469 174.714844 320.304688 179.035156 Z M 256.421875 120.699219 C 261.023438 121.425781 262.640625 122.253906 264.898438 125.808594 C 266.59375 128.476562 268.144531 131.308594 269.253906 134.253906 C 274.035156 146.949219 276.011719 160.222656 276.777344 173.683594 C 277.96875 194.59375 277.042969 215.351562 271.078125 235.59375 C 268.898438 243 266.726562 250.597656 258.929688 254.601562 C 265.242188 258.15625 274.054688 254.246094 277.003906 246.539062 C 273.5625 249.890625 270.546875 253.507812 265.453125 252.917969 C 267.472656 248.503906 269.679688 244.472656 271.210938 240.199219 C 275.460938 228.332031 277.34375 215.960938 278.160156 203.433594 C 279.59375 181.292969 279.019531 159.261719 272.242188 137.917969 C 270.609375 132.773438 267.339844 128.082031 264.40625 123.445312 C 262.882812 121.035156 260.167969 119.953125 256.421875 120.699219 Z M 97.957031 245.949219 C 101.625 254.398438 110.546875 258.414062 116.5625 254.449219 C 110.703125 252.015625 108.476562 246.800781 106.335938 241.554688 C 105.527344 239.570312 104.84375 237.515625 104.285156 235.445312 C 96.730469 207.289062 96.230469 178.855469 101.785156 150.375 C 103.277344 142.71875 106.296875 135.304688 109.1875 128.003906 C 110.738281 124.09375 113.683594 120.898438 118.574219 120.734375 C 114.109375 119.804688 111 122.179688 109.234375 125.605469 C 106.296875 131.300781 103.445312 137.179688 101.660156 143.300781 C 97.847656 156.375 96.695312 169.917969 96.707031 183.5 C 96.726562 207.367188 98.144531 231.019531 109.996094 252.929688 C 104.621094 253.492188 101.585938 249.589844 97.957031 245.949219 Z M 255.15625 211.476562 C 256.4375 210.660156 258.132812 210.125 258.898438 208.96875 C 260.109375 207.132812 260.9375 204.949219 261.507812 202.796875 C 263.5625 195.085938 263.980469 187.191406 262.859375 179.335938 C 262.203125 174.734375 260.769531 170.210938 259.324219 165.773438 C 258.691406 163.824219 257.042969 162.410156 254.851562 163.089844 C 261.554688 179.078125 261.464844 194.863281 255.15625 211.476562 Z M 121.011719 210.796875 C 116.390625 203.421875 115.761719 195.285156 115.761719 187.058594 C 115.757812 178.773438 116.386719 170.574219 121.191406 163.003906 C 117.199219 162.742188 115.96875 165.28125 115.027344 167.878906 C 111.855469 176.644531 111.46875 185.746094 112.582031 194.867188 C 113.105469 199.191406 114.398438 203.453125 115.699219 207.632812 C 116.371094 209.796875 117.898438 211.589844 121.011719 210.796875 Z M 38.613281 186.371094 C 38.617188 185.898438 38.621094 185.425781 38.625 184.949219 C 41.671875 184.949219 44.71875 184.960938 47.765625 184.949219 C 51.429688 184.9375 51.515625 184.824219 50.882812 180.621094 C 47.054688 180.621094 43.144531 180.621094 39.234375 180.621094 C 39.128906 180.25 39.019531 179.878906 38.914062 179.507812 C 39.734375 179.140625 40.539062 178.5 41.378906 178.457031 C 44.035156 178.316406 46.710938 178.46875 49.371094 178.359375 C 50.109375 178.328125 50.824219 177.773438 51.546875 177.457031 C 51.464844 177.148438 51.382812 176.839844 51.300781 176.53125 C 47.738281 176.53125 44.167969 176.636719 40.609375 176.488281 C 38.636719 176.40625 37.789062 177.371094 37.386719 179.023438 C 36.082031 184.398438 35.992188 189.789062 37.457031 195.144531 C 37.683594 195.96875 38.335938 197.308594 38.835938 197.328125 C 43.015625 197.507812 47.203125 197.429688 51.386719 197.429688 C 51.433594 197.066406 51.476562 196.707031 51.519531 196.347656 C 50.789062 196.132812 50.0625 195.769531 49.320312 195.734375 C 47.480469 195.644531 45.628906 195.703125 43.785156 195.703125 C 38.863281 195.707031 37.828125 194.425781 38.8125 189.144531 C 42.800781 189.144531 46.855469 189.144531 50.839844 189.144531 C 51.617188 186.738281 50.480469 186.34375 48.75 186.363281 C 45.371094 186.398438 41.992188 186.371094 38.613281 186.371094 Z M 336.785156 189.160156 C 337.394531 194.742188 336.5625 195.707031 331.511719 195.707031 C 329.667969 195.707031 327.816406 195.636719 325.980469 195.746094 C 325.277344 195.789062 324.601562 196.238281 323.914062 196.503906 C 323.972656 196.863281 324.03125 197.21875 324.09375 197.578125 C 327.601562 197.578125 331.117188 197.464844 334.621094 197.621094 C 336.667969 197.714844 337.621094 196.851562 338.082031 195.015625 C 339.414062 189.742188 339.464844 184.464844 338.085938 179.214844 C 337.847656 178.296875 337.117188 176.816406 336.558594 176.789062 C 332.394531 176.582031 328.21875 176.675781 324.046875 176.675781 C 324.011719 177.058594 323.972656 177.4375 323.933594 177.820312 C 324.789062 178.015625 325.636719 178.351562 326.496094 178.378906 C 329.054688 178.457031 331.621094 178.320312 334.171875 178.46875 C 334.957031 178.515625 335.707031 179.199219 336.472656 179.59375 C 336.351562 179.964844 336.230469 180.339844 336.109375 180.710938 C 332.191406 180.710938 328.277344 180.710938 324.414062 180.710938 C 324.011719 184.894531 324.101562 184.988281 327.761719 184.976562 C 330.800781 184.960938 333.835938 184.972656 336.875 184.972656 C 336.867188 185.429688 336.859375 185.890625 336.851562 186.347656 C 333.5625 186.347656 330.269531 186.253906 326.988281 186.40625 C 326.089844 186.449219 325.226562 187.246094 324.34375 187.695312 C 325.253906 188.1875 326.144531 189.046875 327.078125 189.097656 C 330.324219 189.269531 333.582031 189.160156 336.785156 189.160156 Z M 259.921875 230.027344 C 254.910156 233.375 252.09375 232.902344 249.226562 227.75 C 247.890625 225.347656 246.640625 222.78125 246.019531 220.132812 C 244.613281 214.164062 243.488281 208.121094 242.535156 202.0625 C 242.148438 199.609375 241.296875 199.066406 238.792969 200.214844 C 239.351562 204.3125 239.714844 208.492188 240.523438 212.585938 C 241.910156 219.625 243.351562 226.710938 247.726562 232.675781 C 251.171875 237.375 254.949219 237.308594 258.34375 232.617188 C 258.9375 231.800781 259.398438 230.894531 259.921875 230.027344 Z M 136.558594 174.21875 C 136.226562 171.191406 136.03125 168.347656 135.589844 165.542969 C 134.277344 157.210938 132.714844 148.933594 127.976562 141.703125 C 126.539062 139.511719 124.773438 137.484375 121.773438 138.03125 C 118.414062 138.640625 116.933594 141.269531 115.226562 144.589844 C 120.8125 140.792969 123.773438 141.371094 126.542969 146.957031 C 128.347656 150.59375 129.675781 154.546875 130.640625 158.496094 C 131.894531 163.640625 132.574219 168.925781 133.511719 174.21875 C 134.433594 174.21875 135.308594 174.21875 136.558594 174.21875 Z M 242.171875 174.355469 C 242.453125 172.109375 242.65625 170.285156 242.914062 168.46875 C 243.941406 161.15625 245.117188 153.84375 248.722656 147.28125 C 249.796875 145.320312 251.515625 143.054688 253.4375 142.414062 C 255.214844 141.820312 257.65625 143.210938 259.644531 143.691406 C 258.707031 141 256.933594 138.320312 253.402344 137.953125 C 250.257812 137.628906 248.363281 140.046875 246.964844 142.460938 C 241.332031 152.1875 239.933594 162.988281 238.910156 174.167969 C 240.148438 174.238281 241.011719 174.289062 242.171875 174.355469 Z M 115.785156 230.054688 C 117.226562 233.378906 118.886719 235.554688 121.832031 236.042969 C 124.773438 236.53125 126.613281 234.511719 128 232.296875 C 134.179688 222.4375 135.410156 211.300781 136.503906 200.125 C 133.402344 199.457031 133.394531 199.453125 133.035156 201.917969 C 132.859375 203.132812 132.742188 204.355469 132.5625 205.570312 C 131.429688 213.167969 130.175781 220.757812 126.367188 227.582031 C 123.5625 232.597656 121.050781 233.242188 115.785156 230.054688 Z M 115.785156 230.054688 " fill-opacity="1" fill-rule="nonzero"/></g><path fill="rgb(100%, 100%, 100%)" d="M 188.046875 197.578125 C 168.050781 197.578125 148.054688 197.519531 128.0625 197.648438 C 125.351562 197.664062 123.769531 196.773438 123.695312 194.246094 C 123.546875 189.277344 123.632812 184.296875 123.855469 179.328125 C 123.941406 177.394531 125.171875 176.476562 127.394531 176.480469 C 167.898438 176.550781 208.402344 176.542969 248.902344 176.5 C 250.722656 176.5 251.757812 177.03125 252.253906 178.835938 C 253.765625 184.308594 253.695312 189.742188 252.28125 195.230469 C 251.699219 197.484375 250.230469 197.605469 248.335938 197.601562 C 228.238281 197.5625 208.140625 197.578125 188.046875 197.578125 Z M 251.421875 189.382812 C 209.050781 189.382812 167.066406 189.382812 125.097656 189.382812 C 124.636719 194.855469 125.433594 195.765625 130.453125 195.761719 C 138.863281 195.757812 147.273438 195.757812 155.683594 195.753906 C 186.140625 195.753906 216.601562 195.71875 247.0625 195.8125 C 249.652344 195.820312 250.898438 195.039062 251.097656 192.519531 C 251.167969 191.617188 251.28125 190.71875 251.421875 189.382812 Z M 125.523438 179.285156 C 125.664062 179.609375 125.800781 179.933594 125.941406 180.257812 C 167.476562 180.257812 209.011719 180.257812 250.546875 180.257812 C 250.601562 179.871094 250.65625 179.480469 250.710938 179.089844 C 249.417969 178.84375 248.125 178.382812 246.832031 178.378906 C 213.6875 178.339844 180.546875 178.351562 147.402344 178.351562 C 141.039062 178.351562 134.679688 178.3125 128.316406 178.394531 C 127.382812 178.40625 126.453125 178.972656 125.523438 179.285156 Z M 251.117188 186.011719 C 251.128906 185.769531 251.140625 185.523438 251.152344 185.277344 C 209.078125 185.277344 167.007812 185.277344 124.933594 185.277344 C 124.933594 185.523438 124.933594 185.769531 124.933594 186.011719 C 166.996094 186.011719 209.058594 186.011719 251.117188 186.011719 Z M 251.117188 186.011719 " fill-opacity="1" fill-rule="nonzero"/><path fill="rgb(100%, 100%, 100%)" d="M 94.421875 237.644531 C 93.097656 235.421875 91.640625 233.265625 90.480469 230.960938 C 89.332031 228.683594 88.480469 226.253906 87.355469 223.945312 C 88.992188 233.246094 91.484375 242.269531 97.066406 250.070312 C 105.421875 261.738281 118.496094 261.820312 127.0625 250.246094 C 133.074219 242.121094 135.625 232.566406 137.332031 222.816406 C 138.460938 216.359375 139.023438 209.800781 139.84375 203.289062 C 139.972656 202.25 140.109375 201.214844 140.90625 200.21875 C 140.992188 200.746094 141.183594 201.277344 141.152344 201.800781 C 140.386719 214.546875 138.917969 227.210938 134.289062 239.195312 C 132.425781 244.015625 129.976562 248.8125 126.863281 252.910156 C 118.660156 263.710938 104.796875 263.511719 96.363281 252.878906 C 91.945312 247.304688 89.390625 240.832031 87.421875 234.09375 C 82.476562 217.152344 81.640625 199.753906 81.898438 182.261719 C 82.125 167.136719 83.546875 152.15625 88.21875 137.660156 C 90.503906 130.574219 93.511719 123.84375 99.039062 118.59375 C 106.65625 111.355469 116.847656 111.398438 124.402344 118.726562 C 129.78125 123.945312 132.792969 130.5625 135.089844 137.539062 C 138.78125 148.730469 140.410156 160.296875 141.097656 172.019531 C 141.132812 172.640625 140.964844 173.273438 140.207031 173.941406 C 140.070312 172.804688 139.898438 171.667969 139.804688 170.527344 C 138.792969 158.210938 137.230469 145.964844 132.414062 134.492188 C 130.460938 129.835938 127.859375 125.191406 124.554688 121.414062 C 117.226562 113.039062 107.28125 113.191406 99.589844 121.230469 C 97.984375 122.910156 96.695312 124.898438 95.210938 126.8125 C 95.695312 127.023438 95.871094 127.171875 96.023438 127.152344 C 97.347656 126.980469 98.671875 126.777344 99.996094 126.585938 C 99.882812 127.953125 100.007812 129.394531 99.609375 130.671875 C 98.25 135.078125 96.839844 139.480469 95.167969 143.769531 C 94.585938 145.261719 93.40625 146.871094 92.0625 147.546875 C 91.476562 147.84375 89.777344 145.914062 88.03125 144.574219 C 86.710938 153.378906 85.390625 162.171875 84.066406 170.96875 C 84.339844 171.015625 84.613281 171.0625 84.886719 171.109375 C 86.550781 165.253906 86.902344 158.917969 90.574219 153.796875 C 90.933594 153.832031 91.289062 153.871094 91.648438 153.90625 C 91.785156 155.445312 92.085938 156.988281 92.039062 158.519531 C 91.824219 165.394531 91.519531 172.265625 91.238281 179.132812 C 90.515625 196.875 92.566406 214.382812 95.511719 231.828125 C 95.804688 233.570312 95.738281 235.371094 95.839844 237.144531 C 95.367188 237.308594 94.894531 237.476562 94.421875 237.644531 Z M 94.421875 237.644531 " fill-opacity="1" fill-rule="nonzero"/><path fill="rgb(100%, 100%, 100%)" d="M 288.167969 223.972656 C 285.742188 228.523438 284.613281 233.820312 280.703125 237.472656 C 280.355469 237.390625 280.007812 237.308594 279.660156 237.226562 C 279.75 235.382812 279.652344 233.503906 279.964844 231.695312 C 283.144531 213.335938 284.9375 194.878906 284.136719 176.222656 C 283.890625 170.476562 283.578125 164.738281 283.378906 158.996094 C 283.320312 157.324219 283.558594 155.640625 283.675781 153.714844 C 286.839844 155.542969 288.53125 160.242188 290.507812 171.578125 C 290.785156 171.539062 291.0625 171.5 291.339844 171.457031 C 290.0625 162.558594 288.785156 153.664062 287.507812 144.765625 C 287.167969 144.757812 286.832031 144.753906 286.492188 144.746094 C 286.144531 145.324219 285.835938 145.921875 285.449219 146.472656 C 284.148438 148.324219 282.707031 148.226562 281.558594 146.4375 C 280.738281 145.164062 280.203125 143.683594 279.691406 142.242188 C 278.398438 138.566406 277.09375 134.886719 275.996094 131.152344 C 275.5625 129.679688 275.664062 128.050781 275.519531 126.492188 C 276.953125 126.621094 278.382812 126.746094 279.703125 126.867188 C 274.019531 114.589844 260 111.011719 250.679688 121.40625 C 244.375 128.4375 241.269531 137.054688 239.394531 146.035156 C 237.699219 154.148438 236.871094 162.445312 235.671875 170.660156 C 235.515625 171.734375 235.421875 172.816406 235.199219 174.78125 C 234.597656 173.707031 234.292969 173.417969 234.308594 173.148438 C 235.355469 156.988281 237.253906 140.992188 245.234375 126.5 C 246.941406 123.40625 249.25 120.488281 251.828125 118.070312 C 258.871094 111.457031 268.953125 111.65625 276.027344 118.246094 C 282.503906 124.277344 285.753906 132.148438 288.0625 140.40625 C 293.863281 161.125 294.394531 182.3125 293.046875 203.601562 C 292.226562 216.535156 290.519531 229.390625 285.378906 241.414062 C 283.394531 246.058594 280.792969 250.710938 277.460938 254.460938 C 269.496094 263.425781 257.414062 263.015625 249.441406 254.042969 C 243.105469 246.910156 239.933594 238.191406 238.128906 229.089844 C 236.375 220.257812 235.527344 211.242188 234.316406 202.300781 C 234.222656 201.636719 234.375 200.9375 235.105469 200.144531 C 235.28125 201.230469 235.535156 202.308594 235.621094 203.402344 C 236.527344 214.78125 237.679688 226.171875 241.808594 236.886719 C 243.84375 242.175781 246.457031 247.488281 249.910156 251.929688 C 257.214844 261.335938 269.308594 261.105469 276.921875 251.898438 C 283.613281 243.808594 286.140625 233.980469 288.167969 223.972656 Z M 288.167969 223.972656 " fill-opacity="1" fill-rule="nonzero"/><path fill="rgb(100%, 100%, 100%)" d="M 284.921875 246.535156 C 288.195312 244.105469 291.203125 242.449219 293.425781 240.0625 C 295.757812 237.558594 297.601562 234.484375 299.167969 231.410156 C 300.714844 228.375 301.652344 225.027344 302.328125 221.609375 C 300.667969 224.097656 299.011719 226.589844 297.355469 229.078125 C 297.027344 228.980469 296.699219 228.878906 296.371094 228.78125 C 296.308594 227.441406 296.113281 226.09375 296.207031 224.765625 C 297.117188 211.578125 298.226562 198.402344 298.964844 185.203125 C 299.320312 178.863281 298.957031 172.484375 299.015625 166.125 C 299.035156 164.152344 299.371094 162.183594 300.027344 160.167969 C 304.019531 163.808594 304.074219 168.960938 306.472656 173.269531 C 305.367188 166.488281 304.265625 159.710938 303.136719 152.796875 C 301.632812 154.007812 300.300781 155.617188 299.785156 155.390625 C 298.648438 154.886719 297.585938 153.589844 297.09375 152.375 C 295.480469 148.390625 294.125 144.300781 292.691406 140.246094 C 291.953125 138.164062 291.238281 136.058594 295.441406 136.246094 C 295.351562 135.925781 295.257812 135.609375 295.167969 135.289062 C 291.933594 132.851562 288.699219 130.410156 285.46875 127.972656 C 285.570312 127.753906 285.675781 127.53125 285.777344 127.3125 C 286.929688 127.691406 288.167969 127.910156 289.21875 128.476562 C 295.5 131.875 299.214844 137.464844 301.78125 143.871094 C 307.855469 159.039062 308.859375 174.984375 308.597656 191.070312 C 308.425781 201.867188 307.394531 212.582031 304.367188 223.015625 C 302.496094 229.472656 300 235.621094 295.515625 240.769531 C 292.40625 244.34375 289.027344 246.328125 284.921875 246.535156 Z M 284.921875 246.535156 " fill-opacity="1" fill-rule="nonzero"/><path fill="rgb(100%, 100%, 100%)" d="M 89.960938 127.953125 C 86.667969 130.464844 83.375 132.976562 80.082031 135.488281 C 80.046875 135.789062 80.015625 136.09375 79.980469 136.398438 C 83.984375 135.980469 83.5625 137.96875 82.773438 140.167969 C 81.320312 144.21875 79.976562 148.3125 78.371094 152.300781 C 77.875 153.527344 76.84375 154.832031 75.707031 155.371094 C 75.210938 155.609375 73.84375 154.023438 72.308594 152.828125 C 71.199219 159.542969 70.09375 166.207031 68.992188 172.871094 C 69.125 172.882812 69.253906 172.894531 69.386719 172.90625 C 70.992188 168.851562 72.585938 164.792969 74.234375 160.753906 C 74.347656 160.472656 74.859375 160.355469 75.675781 159.875 C 75.933594 161.65625 76.300781 163.105469 76.324219 164.5625 C 76.445312 173.488281 76.199219 182.429688 76.632812 191.335938 C 77.117188 201.261719 78.230469 211.152344 78.980469 221.066406 C 79.167969 223.5625 79.007812 226.082031 79.007812 228.589844 C 78.699219 228.75 78.394531 228.910156 78.085938 229.070312 C 76.285156 226.277344 74.488281 223.488281 72.359375 220.1875 C 75.253906 231.308594 79.34375 240.910156 90.339844 245.988281 C 89.964844 246.378906 89.589844 246.769531 89.21875 247.15625 C 87.003906 245.882812 84.582031 244.863281 82.609375 243.285156 C 77.199219 238.960938 74.320312 232.90625 72.191406 226.523438 C 67.347656 212 66.464844 196.960938 66.875 181.816406 C 67.242188 168.414062 68.871094 155.222656 74.109375 142.691406 C 76.175781 137.746094 79.175781 133.527344 83.398438 130.285156 C 85.179688 128.914062 87.355469 128.0625 89.351562 126.972656 C 89.554688 127.296875 89.757812 127.625 89.960938 127.953125 Z M 89.960938 127.953125 " fill-opacity="1" fill-rule="nonzero"/><path fill="rgb(100%, 100%, 100%)" d="M 70.148438 226.984375 C 66.5 226.914062 64.171875 224.855469 62.148438 222.425781 C 57.957031 217.386719 56.003906 211.339844 54.816406 205.042969 C 52.175781 191.035156 52.351562 177.085938 56.300781 163.3125 C 57.726562 158.335938 59.828125 153.617188 63.75 150.066406 C 65.46875 148.511719 67.636719 147.457031 69.601562 146.175781 C 69.84375 146.507812 70.082031 146.835938 70.324219 147.167969 C 67.667969 149.453125 65.015625 151.734375 62.359375 154.015625 C 65.324219 154.242188 65.21875 155.808594 64.667969 157.574219 C 63.871094 160.121094 63.09375 162.675781 62.160156 165.167969 C 61.109375 167.976562 60.105469 168.109375 57.375 165.484375 C 56.59375 170.21875 55.867188 174.605469 55.144531 178.992188 C 55.257812 179.035156 55.371094 179.082031 55.488281 179.125 C 56.851562 176.277344 58.214844 173.433594 59.578125 170.585938 C 59.925781 170.695312 60.273438 170.804688 60.625 170.914062 C 61.558594 185.546875 62.496094 200.183594 63.5 215.816406 C 61.472656 213.636719 59.921875 211.96875 58.371094 210.300781 C 58.175781 210.402344 57.980469 210.503906 57.785156 210.605469 C 59.425781 213.730469 60.714844 217.121094 62.808594 219.910156 C 64.824219 222.59375 67.667969 224.652344 70.148438 226.984375 Z M 70.148438 226.984375 " fill-opacity="1" fill-rule="nonzero"/><path fill="rgb(100%, 100%, 100%)" d="M 320.304688 179.035156 C 319.605469 174.710938 318.90625 170.390625 318.207031 166.085938 C 316.878906 166.582031 315.6875 167.476562 314.917969 167.195312 C 314.097656 166.898438 313.511719 165.558594 313.117188 164.558594 C 312.253906 162.371094 311.515625 160.125 310.847656 157.863281 C 310.34375 156.167969 309.582031 154.171875 313.421875 154.792969 C 313.3125 154.523438 313.207031 154.257812 313.101562 153.988281 C 310.4375 151.710938 307.769531 149.4375 305.105469 147.160156 C 305.292969 146.945312 305.480469 146.730469 305.667969 146.519531 C 309.113281 147.332031 311.671875 149.539062 313.769531 152.335938 C 317.546875 157.367188 319.539062 163.164062 320.648438 169.28125 C 323.167969 183.183594 323.132812 197.03125 319.21875 210.703125 C 317.796875 215.667969 315.710938 220.402344 311.804688 223.960938 C 310.085938 225.53125 307.925781 226.613281 305.964844 227.917969 C 305.738281 227.617188 305.511719 227.316406 305.28125 227.011719 C 307.828125 224.609375 310.757812 222.492188 312.8125 219.722656 C 314.882812 216.929688 316.089844 213.488281 317.128906 210.0625 C 315.605469 211.808594 314.082031 213.554688 312.558594 215.300781 C 312.375 215.160156 312.191406 215.015625 312.007812 214.875 C 312.945312 200.238281 313.886719 185.601562 314.824219 170.964844 C 315.132812 170.828125 315.441406 170.695312 315.75 170.5625 C 317.140625 173.367188 318.53125 176.171875 319.917969 178.976562 C 320.046875 178.996094 320.175781 179.015625 320.304688 179.035156 Z M 320.304688 179.035156 " fill-opacity="1" fill-rule="nonzero"/><path fill="rgb(100%, 100%, 100%)" d="M 256.421875 120.699219 C 260.167969 119.953125 262.882812 121.035156 264.410156 123.445312 C 267.339844 128.082031 270.609375 132.773438 272.242188 137.917969 C 279.019531 159.261719 279.597656 181.292969 278.160156 203.433594 C 277.347656 215.960938 275.460938 228.335938 271.210938 240.203125 C 269.679688 244.472656 267.476562 248.503906 265.453125 252.917969 C 270.546875 253.507812 273.5625 249.894531 277.003906 246.539062 C 274.054688 254.246094 265.242188 258.15625 258.929688 254.605469 C 266.726562 250.597656 268.898438 243 271.082031 235.59375 C 277.042969 215.355469 277.96875 194.597656 276.78125 173.683594 C 276.011719 160.222656 274.035156 146.949219 269.253906 134.257812 C 268.144531 131.308594 266.59375 128.476562 264.902344 125.8125 C 262.640625 122.253906 261.023438 121.425781 256.421875 120.699219 Z M 256.421875 120.699219 " fill-opacity="1" fill-rule="nonzero"/><path fill="rgb(100%, 100%, 100%)" d="M 97.957031 245.949219 C 101.585938 249.589844 104.621094 253.492188 109.996094 252.929688 C 98.140625 231.015625 96.726562 207.367188 96.703125 183.5 C 96.695312 169.917969 97.847656 156.375 101.660156 143.300781 C 103.445312 137.179688 106.296875 131.300781 109.230469 125.605469 C 111 122.179688 114.109375 119.804688 118.574219 120.734375 C 113.683594 120.898438 110.738281 124.089844 109.1875 128.003906 C 106.296875 135.300781 103.277344 142.71875 101.785156 150.371094 C 96.230469 178.855469 96.730469 207.289062 104.285156 235.441406 C 104.839844 237.515625 105.527344 239.570312 106.335938 241.554688 C 108.476562 246.800781 110.703125 252.015625 116.5625 254.449219 C 110.542969 258.414062 101.625 254.398438 97.957031 245.949219 Z M 97.957031 245.949219 " fill-opacity="1" fill-rule="nonzero"/><path fill="rgb(100%, 100%, 100%)" d="M 255.15625 211.476562 C 261.464844 194.863281 261.554688 179.078125 254.851562 163.089844 C 257.039062 162.410156 258.691406 163.824219 259.324219 165.773438 C 260.769531 170.210938 262.203125 174.734375 262.859375 179.335938 C 263.980469 187.191406 263.5625 195.085938 261.507812 202.796875 C 260.9375 204.949219 260.109375 207.132812 258.898438 208.96875 C 258.132812 210.125 256.4375 210.660156 255.15625 211.476562 Z M 255.15625 211.476562 " fill-opacity="1" fill-rule="nonzero"/><path fill="rgb(100%, 100%, 100%)" d="M 121.011719 210.796875 C 117.898438 211.589844 116.371094 209.796875 115.699219 207.632812 C 114.398438 203.453125 113.105469 199.191406 112.578125 194.867188 C 111.46875 185.746094 111.855469 176.644531 115.027344 167.878906 C 115.964844 165.28125 117.195312 162.742188 121.191406 163.003906 C 116.386719 170.574219 115.757812 178.773438 115.761719 187.058594 C 115.761719 195.285156 116.390625 203.421875 121.011719 210.796875 Z M 121.011719 210.796875 " fill-opacity="1" fill-rule="nonzero"/><path fill="rgb(100%, 100%, 100%)" d="M 38.613281 186.371094 C 41.992188 186.371094 45.371094 186.398438 48.75 186.363281 C 50.480469 186.34375 51.617188 186.738281 50.839844 189.144531 C 46.855469 189.144531 42.800781 189.144531 38.8125 189.144531 C 37.828125 194.425781 38.863281 195.707031 43.785156 195.703125 C 45.628906 195.703125 47.480469 195.644531 49.320312 195.734375 C 50.0625 195.769531 50.789062 196.132812 51.519531 196.347656 C 51.476562 196.707031 51.433594 197.070312 51.386719 197.429688 C 47.203125 197.429688 43.015625 197.503906 38.835938 197.328125 C 38.335938 197.308594 37.679688 195.96875 37.457031 195.144531 C 35.992188 189.789062 36.082031 184.398438 37.386719 179.023438 C 37.785156 177.367188 38.636719 176.40625 40.605469 176.488281 C 44.164062 176.636719 47.734375 176.53125 51.300781 176.53125 C 51.382812 176.839844 51.464844 177.148438 51.546875 177.457031 C 50.820312 177.773438 50.105469 178.328125 49.371094 178.359375 C 46.707031 178.46875 44.035156 178.316406 41.375 178.457031 C 40.539062 178.5 39.730469 179.140625 38.910156 179.507812 C 39.019531 179.878906 39.125 180.25 39.234375 180.621094 C 43.144531 180.621094 47.050781 180.621094 50.878906 180.621094 C 51.515625 184.820312 51.425781 184.933594 47.761719 184.949219 C 44.714844 184.957031 41.667969 184.949219 38.621094 184.949219 C 38.621094 185.425781 38.617188 185.898438 38.613281 186.371094 Z M 38.613281 186.371094 " fill-opacity="1" fill-rule="nonzero"/><path fill="rgb(100%, 100%, 100%)" d="M 336.785156 189.160156 C 333.582031 189.160156 330.324219 189.269531 327.078125 189.09375 C 326.144531 189.042969 325.253906 188.183594 324.34375 187.695312 C 325.226562 187.246094 326.089844 186.449219 326.988281 186.40625 C 330.269531 186.25 333.5625 186.34375 336.851562 186.34375 C 336.859375 185.886719 336.867188 185.429688 336.875 184.972656 C 333.835938 184.972656 330.800781 184.960938 327.761719 184.972656 C 324.101562 184.988281 324.011719 184.894531 324.414062 180.710938 C 328.277344 180.710938 332.191406 180.710938 336.109375 180.710938 C 336.230469 180.335938 336.351562 179.964844 336.472656 179.589844 C 335.707031 179.199219 334.957031 178.511719 334.171875 178.46875 C 331.621094 178.320312 329.054688 178.457031 326.496094 178.378906 C 325.636719 178.351562 324.789062 178.011719 323.933594 177.816406 C 323.972656 177.4375 324.011719 177.054688 324.046875 176.675781 C 328.21875 176.675781 332.394531 176.582031 336.558594 176.789062 C 337.121094 176.816406 337.847656 178.296875 338.085938 179.210938 C 339.464844 184.464844 339.414062 189.742188 338.082031 195.015625 C 337.617188 196.851562 336.664062 197.714844 334.621094 197.621094 C 331.117188 197.460938 327.601562 197.578125 324.09375 197.578125 C 324.03125 197.21875 323.972656 196.859375 323.914062 196.5 C 324.601562 196.238281 325.277344 195.785156 325.980469 195.746094 C 327.816406 195.636719 329.664062 195.703125 331.511719 195.703125 C 336.5625 195.707031 337.390625 194.742188 336.785156 189.160156 Z M 336.785156 189.160156 " fill-opacity="1" fill-rule="nonzero"/><path fill="rgb(100%, 100%, 100%)" d="M 259.921875 230.027344 C 259.398438 230.894531 258.9375 231.800781 258.347656 232.617188 C 254.949219 237.308594 251.171875 237.375 247.726562 232.675781 C 243.351562 226.710938 241.910156 219.625 240.523438 212.585938 C 239.71875 208.492188 239.351562 204.3125 238.792969 200.214844 C 241.296875 199.066406 242.148438 199.609375 242.535156 202.0625 C 243.492188 208.121094 244.617188 214.164062 246.019531 220.132812 C 246.640625 222.78125 247.890625 225.347656 249.226562 227.746094 C 252.09375 232.902344 254.910156 233.375 259.921875 230.027344 Z M 259.921875 230.027344 " fill-opacity="1" fill-rule="nonzero"/><path fill="rgb(100%, 100%, 100%)" d="M 136.558594 174.21875 C 135.308594 174.21875 134.433594 174.21875 133.511719 174.21875 C 132.574219 168.925781 131.894531 163.640625 130.640625 158.496094 C 129.675781 154.546875 128.347656 150.59375 126.542969 146.957031 C 123.773438 141.371094 120.8125 140.792969 115.226562 144.589844 C 116.933594 141.273438 118.414062 138.640625 121.773438 138.03125 C 124.773438 137.484375 126.539062 139.511719 127.976562 141.703125 C 132.714844 148.933594 134.277344 157.210938 135.589844 165.542969 C 136.03125 168.347656 136.226562 171.191406 136.558594 174.21875 Z M 136.558594 174.21875 " fill-opacity="1" fill-rule="nonzero"/><path fill="rgb(100%, 100%, 100%)" d="M 242.171875 174.355469 C 241.011719 174.289062 240.148438 174.238281 238.910156 174.167969 C 239.933594 162.988281 241.332031 152.1875 246.964844 142.460938 C 248.359375 140.046875 250.253906 137.628906 253.402344 137.953125 C 256.933594 138.320312 258.707031 141.003906 259.644531 143.691406 C 257.65625 143.210938 255.214844 141.820312 253.4375 142.414062 C 251.515625 143.054688 249.796875 145.324219 248.722656 147.28125 C 245.117188 153.847656 243.941406 161.15625 242.914062 168.472656 C 242.65625 170.285156 242.453125 172.109375 242.171875 174.355469 Z M 242.171875 174.355469 " fill-opacity="1" fill-rule="nonzero"/><path fill="rgb(100%, 100%, 100%)" d="M 115.785156 230.054688 C 121.050781 233.242188 123.5625 232.597656 126.367188 227.578125 C 130.175781 220.757812 131.429688 213.167969 132.5625 205.566406 C 132.742188 204.355469 132.859375 203.128906 133.035156 201.914062 C 133.394531 199.453125 133.402344 199.453125 136.503906 200.125 C 135.410156 211.300781 134.179688 222.4375 128 232.296875 C 126.613281 234.511719 124.773438 236.53125 121.832031 236.042969 C 118.886719 235.554688 117.226562 233.378906 115.785156 230.054688 Z M 115.785156 230.054688 " fill-opacity="1" fill-rule="nonzero"/><path fill="rgb(0%, 0%, 0%)" d="M 251.421875 189.382812 C 251.28125 190.71875 251.167969 191.617188 251.097656 192.519531 C 250.898438 195.039062 249.652344 195.820312 247.0625 195.8125 C 216.601562 195.71875 186.140625 195.753906 155.683594 195.753906 C 147.273438 195.757812 138.863281 195.753906 130.453125 195.761719 C 125.433594 195.765625 124.636719 194.855469 125.097656 189.382812 C 167.066406 189.382812 209.050781 189.382812 251.421875 189.382812 Z M 251.421875 189.382812 " fill-opacity="1" fill-rule="nonzero"/><path fill="rgb(0%, 0%, 0%)" d="M 125.523438 179.285156 C 126.453125 178.972656 127.382812 178.40625 128.316406 178.394531 C 134.675781 178.3125 141.039062 178.351562 147.402344 178.351562 C 180.546875 178.351562 213.6875 178.339844 246.832031 178.378906 C 248.125 178.378906 249.417969 178.84375 250.707031 179.089844 C 250.65625 179.480469 250.601562 179.871094 250.546875 180.257812 C 209.011719 180.257812 167.476562 180.257812 125.941406 180.257812 C 125.800781 179.933594 125.664062 179.609375 125.523438 179.285156 Z M 125.523438 179.285156 " fill-opacity="1" fill-rule="nonzero"/><path fill="rgb(0%, 0%, 0%)" d="M 251.117188 186.011719 C 209.058594 186.011719 166.996094 186.011719 124.933594 186.011719 C 124.933594 185.769531 124.933594 185.523438 124.933594 185.277344 C 167.007812 185.277344 209.078125 185.277344 251.152344 185.277344 C 251.140625 185.523438 251.128906 185.769531 251.117188 186.011719 Z M 251.117188 186.011719 " fill-opacity="1" fill-rule="nonzero"/></svg>